<svg width="318" height="318" viewBox="0 0 318 318" fill="none" xmlns="http://www.w3.org/2000/svg">
<g clip-path="url(#clip0_7_124)">
<path d="M178.878 119.367C186.485 119.367 193.865 117.461 200.553 113.808C205.183 117.398 210.863 119.367 216.886 119.367C229.941 119.367 240.852 110.029 243.296 97.6872C246.907 99.4398 250.861 100.363 254.894 100.363C269.739 100.363 281.817 88.2854 281.817 73.441C281.817 59.7738 271.581 48.4505 258.373 46.7401C252.101 35.0419 239.87 27.5146 226.388 27.5146C225.48 27.5146 224.567 27.5517 223.648 27.6253C220.302 16.5767 210.013 8.51052 197.882 8.51052C185.572 8.51052 175.162 16.8192 171.968 28.127C170.77 28.333 169.551 28.5916 168.31 28.9083C165.559 27.9791 162.73 27.5146 159.874 27.5146C155.292 27.5146 150.805 28.7128 146.825 30.951C142.021 28.6918 136.758 27.5146 131.368 27.5146C117.886 27.5146 105.654 35.0475 99.3834 46.7456C86.1759 48.4561 75.9396 59.7738 75.9396 73.4466C75.9396 88.291 88.0175 100.369 102.862 100.369C107.444 100.369 111.926 99.1707 115.911 96.9325C120.72 99.1917 125.978 100.369 131.373 100.369C134.572 100.369 137.745 99.931 140.854 99.0494C149.301 111.586 163.538 119.367 178.878 119.367Z" fill="#E9EBEF"/>
<path d="M242.225 309.408C255.322 309.408 265.98 298.75 265.98 285.653L265.98 99.3024L257.355 100.073C256.842 100.121 256.341 100.184 255.84 100.253C255.523 100.295 255.217 100.363 254.895 100.363C253.184 100.363 251.463 100.194 249.769 99.8617L243.783 98.6795L241.117 104.17C236.63 113.402 227.122 119.367 216.886 119.367C212.383 119.367 207.891 118.19 203.884 115.957L200.463 114.051L196.868 115.619C191.162 118.106 185.107 119.367 178.878 119.367C165.269 119.367 152.42 113.318 143.641 102.765L140.796 99.3501L136.399 99.9996C134.753 100.243 133.057 100.364 131.369 100.364C127.077 100.364 122.875 99.6247 118.879 98.1629L115.965 97.102L113.104 98.3003C109.831 99.673 106.389 100.365 102.863 100.365C102.54 100.365 102.235 100.302 101.918 100.254C101.416 100.185 100.915 100.122 100.403 100.074L91.7775 99.3037L91.7775 285.653C91.7776 298.75 102.436 309.408 115.533 309.408L242.225 309.408Z" fill="#FFA800"/>
<path d="M226.388 151.041C230.764 151.041 234.307 154.583 234.307 158.959L234.307 269.816C234.307 274.192 230.764 277.734 226.388 277.734C222.012 277.734 218.47 274.192 218.47 269.816L218.47 158.959C218.47 154.583 222.012 151.041 226.388 151.041Z" fill="#573A32"/>
<path d="M178.878 151.041C183.254 151.041 186.797 154.583 186.797 158.959L186.797 269.816C186.797 274.192 183.254 277.734 178.878 277.734C174.502 277.734 170.96 274.192 170.96 269.816L170.96 158.959C170.96 154.583 174.502 151.041 178.878 151.041Z" fill="#573A32"/>
<path d="M131.368 151.041C135.744 151.041 139.286 154.583 139.286 158.959L139.286 269.816C139.286 274.192 135.744 277.734 131.368 277.734C126.992 277.734 123.45 274.192 123.45 269.816L123.45 158.959C123.45 154.583 126.992 151.041 131.368 151.041Z" fill="#573A32"/>
<path d="M242.225 317.326L115.531 317.326C98.069 317.326 83.858 303.115 83.858 285.653L83.858 269.816L60.103 269.816C42.6406 269.816 28.4296 255.605 28.4296 238.143L28.4296 143.122C28.4296 125.66 42.6405 111.449 60.103 111.449L83.858 111.449L83.858 102.575C74.3455 96.3461 68.0213 85.6353 68.0213 73.441C68.0213 57.1453 79.2654 43.4249 94.4055 39.6402C102.466 27.3401 116.276 19.5962 131.368 19.5962C136.605 19.5962 141.741 20.5093 146.577 22.2724C150.768 20.5198 155.282 19.5962 159.874 19.5962C162.118 19.5962 164.34 19.8177 166.526 20.2507C172.179 8.62126 184.11 0.592172 197.882 0.592171C211.423 0.59217 223.184 8.35772 228.949 19.6698C243.033 20.4883 255.75 28.0367 263.352 39.6401C278.491 43.4249 289.735 57.1453 289.735 73.441C289.735 85.6352 283.411 96.346 273.898 102.575L273.898 285.653C273.898 303.115 259.687 317.326 242.225 317.326ZM99.6947 285.653C99.6947 294.4 106.784 301.489 115.531 301.489L242.225 301.489C250.972 301.489 258.062 294.4 258.062 285.653L258.062 107.959C257.001 108.055 255.976 108.282 254.894 108.282C252.651 108.282 250.423 108.06 248.243 107.627C242.589 119.257 230.659 127.286 216.886 127.286C210.942 127.286 205.141 125.723 200.031 122.878C193.369 125.781 186.221 127.286 178.878 127.286C162.735 127.286 147.643 119.948 137.555 107.833C135.512 108.134 133.443 108.282 131.368 108.282C126.132 108.282 120.995 107.369 116.159 105.6C111.968 107.358 107.455 108.282 102.862 108.282C101.775 108.282 100.756 108.06 99.6947 107.959L99.6947 285.653V285.653ZM60.103 127.286C51.3557 127.286 44.2663 134.375 44.2663 143.122L44.2663 238.143C44.2663 246.89 51.3557 253.979 60.103 253.979L83.858 253.979L83.858 127.286L60.103 127.286ZM254.894 54.4369C254.313 54.4369 253.77 54.5582 253.2 54.6058C249.32 43.4725 238.847 35.4329 226.388 35.4329C222.973 35.4329 219.742 36.135 216.707 37.2331C216.765 36.6312 216.886 36.0509 216.886 35.4329C216.886 24.9386 208.377 16.4289 197.882 16.4289C187.388 16.4289 178.878 24.9386 178.878 35.4329C175.019 35.4329 171.372 36.1771 167.861 37.2486C165.428 36.1134 162.741 35.4329 159.874 35.4329C155.028 35.4329 150.647 37.3018 147.29 40.2947C142.745 37.2226 137.265 35.4329 131.368 35.4329C118.91 35.4329 108.436 43.4725 104.556 54.6058C103.992 54.5533 103.442 54.437 102.862 54.437C92.3678 54.437 83.858 62.9467 83.858 73.441C83.858 83.9353 92.3678 92.445 102.862 92.445C107.713 92.445 112.089 90.5762 115.447 87.5833C119.992 90.6504 125.471 92.445 131.368 92.445C136.077 92.445 140.453 91.1942 144.365 89.1719C150.356 102.29 163.517 111.449 178.878 111.449C187.457 111.449 195.29 108.498 201.652 103.705C205.109 108.377 210.62 111.449 216.886 111.449C227.381 111.449 235.89 102.939 235.89 92.445C235.89 91.8641 235.769 91.3204 235.721 90.7506C238.055 89.9377 240.298 88.9399 242.315 87.5833C245.672 90.5712 250.048 92.445 254.899 92.445C265.394 92.445 273.903 83.9353 273.903 73.441C273.903 62.9467 265.389 54.4369 254.894 54.4369Z" fill="#573A32"/>
</g>
<defs>
<clipPath id="clip0_7_124">
<rect width="316.734" height="316.734" fill="white" transform="matrix(-1 8.74228e-08 8.74228e-08 1 317.449 0.592163)"/>
</clipPath>
</defs>
</svg>
