<svg width="318" height="318" viewBox="0 0 318 318" fill="none" xmlns="http://www.w3.org/2000/svg">
<g clip-path="url(#clip0_7_101)">
<path d="M139.04 119.367C131.433 119.367 124.054 117.461 117.365 113.808C112.735 117.398 107.055 119.367 101.032 119.367C87.9775 119.367 77.0663 110.029 74.6221 97.6872C71.0112 99.4398 67.0576 100.363 63.0242 100.363C48.1798 100.363 36.1018 88.2854 36.1018 73.441C36.1018 59.7738 46.3375 48.4505 59.5457 46.7401C65.8173 35.0419 78.048 27.5146 91.5303 27.5146C92.4384 27.5146 93.3515 27.5517 94.2701 27.6253C97.6169 16.5767 107.906 8.51051 120.036 8.51051C132.347 8.51051 142.756 16.8192 145.95 28.127C147.149 28.333 148.368 28.5916 149.609 28.9083C152.359 27.9791 155.189 27.5146 158.044 27.5146C162.627 27.5146 167.113 28.7128 171.094 30.951C175.897 28.6918 181.16 27.5146 186.55 27.5146C200.033 27.5146 212.264 35.0475 218.535 46.7456C231.743 48.4561 241.979 59.7738 241.979 73.4465C241.979 88.291 229.901 100.369 215.057 100.369C210.474 100.369 205.992 99.1707 202.007 96.9325C197.198 99.1917 191.94 100.369 186.546 100.369C183.347 100.369 180.174 99.931 177.065 99.0494C168.618 111.586 154.381 119.367 139.04 119.367Z" fill="#E9EBEF"/>
<path d="M75.6935 309.408C62.5967 309.408 51.9385 298.75 51.9385 285.653L51.9385 99.3024L60.5639 100.073C61.0761 100.121 61.5772 100.184 62.0789 100.253C62.3956 100.295 62.7019 100.363 63.0236 100.363C64.734 100.363 66.455 100.194 68.1494 99.8617L74.1358 98.6795L76.8015 104.17C81.289 113.402 90.7965 119.367 101.032 119.367C105.535 119.367 110.028 118.19 114.034 115.957L117.455 114.051L121.05 115.619C126.756 118.106 132.811 119.367 139.04 119.367C152.649 119.367 165.498 113.318 174.277 102.765L177.122 99.3501L181.519 99.9996C183.166 100.243 184.861 100.364 186.55 100.364C190.842 100.364 195.043 99.6247 199.04 98.1629L201.953 97.102L204.815 98.3003C208.088 99.673 211.529 100.365 215.056 100.365C215.378 100.365 215.684 100.301 216 100.254C216.502 100.185 217.003 100.122 217.515 100.074L226.141 99.3037V285.653C226.141 298.75 215.483 309.408 202.386 309.408H75.6935Z" fill="#FFA800"/>
<path d="M91.5302 151.041C87.154 151.041 83.6118 154.583 83.6118 158.959V269.816C83.6118 274.192 87.154 277.734 91.5302 277.734C95.9063 277.734 99.4485 274.192 99.4485 269.816V158.959C99.4485 154.583 95.9063 151.041 91.5302 151.041Z" fill="#573A32"/>
<path d="M139.04 151.041C134.664 151.041 131.122 154.583 131.122 158.959V269.816C131.122 274.192 134.664 277.734 139.04 277.734C143.416 277.734 146.959 274.192 146.959 269.816V158.959C146.959 154.583 143.416 151.041 139.04 151.041Z" fill="#573A32"/>
<path d="M186.55 151.041C182.174 151.041 178.632 154.583 178.632 158.959V269.816C178.632 274.192 182.174 277.734 186.55 277.734C190.927 277.734 194.469 274.192 194.469 269.816V158.959C194.469 154.583 190.927 151.041 186.55 151.041Z" fill="#573A32"/>
<path d="M75.6934 317.326H202.387C219.849 317.326 234.06 303.115 234.06 285.653V269.816H257.815C275.278 269.816 289.489 255.605 289.489 238.143V143.122C289.489 125.66 275.278 111.449 257.815 111.449H234.06V102.575C243.573 96.346 249.897 85.6352 249.897 73.441C249.897 57.1453 238.653 43.4249 223.513 39.6401C215.452 27.3401 201.643 19.5962 186.55 19.5962C181.314 19.5962 176.177 20.5093 171.342 22.2724C167.15 20.5198 162.637 19.5962 158.044 19.5962C155.801 19.5962 153.578 19.8177 151.393 20.2507C145.739 8.62125 133.809 0.592163 120.036 0.592163C106.496 0.592163 94.7346 8.35771 88.9697 19.6698C74.8855 20.4883 62.1685 28.0367 54.5669 39.6401C39.4274 43.4249 28.1833 57.1453 28.1833 73.441C28.1833 85.6352 34.5075 96.346 44.02 102.575L44.02 285.653C44.02 303.115 58.231 317.326 75.6934 317.326ZM218.224 285.653C218.224 294.4 211.134 301.489 202.387 301.489H75.6934C66.9461 301.489 59.8567 294.4 59.8567 285.653L59.8567 107.959C60.9177 108.055 61.9421 108.282 63.0241 108.282C65.2678 108.282 67.4955 108.06 69.6755 107.627C75.3291 119.257 87.2598 127.286 101.032 127.286C106.976 127.286 112.778 125.723 117.888 122.878C124.55 125.781 131.697 127.286 139.04 127.286C155.183 127.286 170.276 119.948 180.364 107.833C182.406 108.134 184.475 108.282 186.55 108.282C191.787 108.282 196.923 107.369 201.759 105.6C205.95 107.358 210.464 108.282 215.056 108.282C216.144 108.282 217.163 108.06 218.224 107.959V285.653V285.653ZM257.815 127.286C266.563 127.286 273.652 134.375 273.652 143.122V238.143C273.652 246.89 266.563 253.979 257.815 253.979H234.06V127.286H257.815ZM63.0241 54.4369C63.605 54.4369 64.1487 54.5582 64.7185 54.6058C68.5985 43.4725 79.0717 35.4329 91.5301 35.4329C94.9455 35.4329 98.176 36.135 101.212 37.2331C101.153 36.6312 101.032 36.0509 101.032 35.4329C101.032 24.9386 109.542 16.4289 120.036 16.4289C130.53 16.4289 139.04 24.9386 139.04 35.4329C142.899 35.4329 146.547 36.1771 150.057 37.2486C152.491 36.1134 155.178 35.4329 158.044 35.4329C162.891 35.4329 167.272 37.3018 170.629 40.2946C175.174 37.2226 180.654 35.4329 186.55 35.4329C199.009 35.4329 209.482 43.4725 213.362 54.6058C213.927 54.5532 214.476 54.4369 215.056 54.4369C225.551 54.4369 234.06 62.9467 234.06 73.441C234.06 83.9353 225.551 92.445 215.056 92.445C210.205 92.445 205.829 90.5762 202.472 87.5833C197.927 90.6504 192.447 92.445 186.55 92.445C181.841 92.445 177.465 91.1942 173.554 89.1719C167.562 102.29 154.402 111.449 139.04 111.449C130.462 111.449 122.628 108.498 116.267 103.705C112.809 108.377 107.298 111.449 101.032 111.449C90.5379 111.449 82.0281 102.939 82.0281 92.445C82.0281 91.8641 82.1494 91.3204 82.197 90.7506C79.8636 89.9377 77.6205 88.9399 75.6037 87.5833C72.2465 90.5712 67.8704 92.445 63.0191 92.445C52.5249 92.445 44.0151 83.9353 44.0151 73.441C44.0151 62.9467 52.5298 54.4369 63.0241 54.4369Z" fill="#573A32"/>
</g>
<defs>
<clipPath id="clip0_7_101">
<rect width="316.734" height="316.734" fill="white" transform="translate(0.469238 0.592163)"/>
</clipPath>
</defs>
</svg>
