<svg width="111" height="111" viewBox="0 0 111 111" fill="none" xmlns="http://www.w3.org/2000/svg">
<path d="M55.1281 0C53.9652 0 52.7741 0.524237 52.0375 1.29375C51.4112 1.94811 51.1478 2.6739 50.8875 3.37812L50.8156 3.30625C50.8156 3.30625 50.5834 3.71527 50.1688 4.16875C49.7724 4.6022 49.3802 4.91883 49.2344 4.95937C49.2277 4.96125 49.1677 4.95857 49.1625 4.95937C48.9899 4.988 48.8211 5.03623 48.6594 5.10313C46.4305 5.39078 44.2367 5.83093 42.1187 6.39687C42.0516 6.41481 41.9701 6.37868 41.9031 6.39687C41.8301 6.41727 41.7581 6.44125 41.6875 6.46875C41.5918 6.46276 41.4957 6.46276 41.4 6.46875C41.4 6.46875 40.8356 6.44718 40.25 6.18125C39.6644 5.91532 39.2437 5.60625 39.2437 5.60625L39.1719 5.67812C38.6749 5.1512 38.1707 4.59061 37.375 4.24062C36.4005 3.812 35.0716 3.79645 33.9969 4.24062C32.9242 4.68613 32.0112 5.62034 31.625 6.6125C31.3082 7.42625 31.3158 8.18619 31.3375 8.9125C31.3382 8.93483 31.3367 8.96212 31.3375 8.98438C31.3299 9.03692 31.2454 9.45065 31.05 9.99062C30.8416 10.5664 30.4361 11.0043 30.3312 11.0687L30.4031 11.1406C28.2759 12.3372 26.2743 13.6943 24.3656 15.1656C24.3079 15.2101 24.2075 15.1928 24.15 15.2375C24.0487 15.3018 23.9526 15.3739 23.8625 15.4531C23.8385 15.4528 23.8146 15.4528 23.7906 15.4531C23.789 15.4544 23.2838 15.6903 22.6406 15.6687C21.9974 15.6472 21.4906 15.525 21.4906 15.525C20.8179 15.2172 20.1528 14.9693 19.2625 14.95C18.1967 14.9268 16.9222 15.3497 16.1 16.1719C15.2771 16.9948 14.7825 18.2695 14.8062 19.3344C14.8261 20.2249 15.1467 20.8902 15.4531 21.5625C15.4531 21.5625 15.5692 22.027 15.5969 22.6406C15.6245 23.2542 15.4519 23.8378 15.3812 23.9344C15.2273 24.1292 15.106 24.3476 15.0219 24.5812C13.5893 26.4535 12.1665 28.3937 10.9969 30.475C10.9648 30.5253 10.5001 30.9076 9.91875 31.1219C9.33745 31.3361 8.84062 31.4094 8.84062 31.4094V31.4812C8.11425 31.4596 7.35465 31.4521 6.54063 31.7687C5.54813 32.1549 4.61315 33.0654 4.16875 34.1406C3.72194 35.2164 3.73936 36.5438 4.16875 37.5187C4.5353 38.351 5.05313 38.8767 5.60625 39.3875C5.60625 39.3875 5.85075 39.6986 6.10938 40.25C6.35466 40.7729 6.48518 41.3077 6.46875 41.4719C6.46786 41.4808 6.47023 41.5373 6.46875 41.5438C5.75926 44.0652 5.20022 46.6239 4.8875 49.3062C4.88472 49.3301 4.89024 49.3543 4.8875 49.3781C4.85354 49.4692 4.60463 49.9094 4.16875 50.3125C3.71123 50.7356 3.23438 50.9594 3.23438 50.9594V51.0312C2.57666 51.2865 1.90398 51.5253 1.29375 52.1094C0.524237 52.8459 0 54.1089 0 55.2719C0 56.4348 0.524237 57.6259 1.29375 58.3625C1.93087 58.9723 2.62011 59.2542 3.30625 59.5125C3.30625 59.5125 3.65234 59.7559 4.09687 60.1594C4.54141 60.5628 4.8602 61.0976 4.8875 61.2375C4.88806 61.2421 4.95881 61.2329 4.95937 61.2375C5.2746 63.8567 5.77789 66.4661 6.46875 68.9281C6.47496 68.9502 6.46252 68.9779 6.46875 69C6.46743 69.0769 6.43076 69.6034 6.18125 70.15C5.91702 70.7289 5.60625 71.1562 5.60625 71.1562C5.07953 71.6475 4.5897 72.1595 4.24062 72.9531C3.812 73.9277 3.72457 75.2566 4.16875 76.3312C4.61426 77.4039 5.62034 78.3169 6.6125 78.7031C7.44729 79.0281 8.16965 79.0172 8.9125 78.9906V79.0625C8.9125 79.0625 9.35512 79.0763 9.91875 79.2781C10.4001 79.4504 10.7566 79.6951 10.925 79.8531C10.9538 79.8801 11.0566 79.9788 11.0687 79.9969C12.2267 82.0466 13.6067 83.9699 15.0219 85.8187C15.0657 85.8933 15.1137 85.9653 15.1656 86.0344C15.1979 86.0761 15.2052 86.1365 15.2375 86.1781C15.2983 86.3042 15.3705 86.4245 15.4531 86.5375C15.4544 86.5391 15.6185 87.1162 15.5969 87.7594C15.5753 88.4026 15.4531 88.9094 15.4531 88.9094H15.525C15.2289 89.5689 14.8975 90.2686 14.8781 91.1375C14.8544 92.2024 15.349 93.4052 16.1719 94.2281C16.9948 95.051 18.1976 95.5456 19.2625 95.5219C20.1564 95.5019 20.8882 95.2549 21.5625 94.9469C21.5625 94.9469 22.027 94.8308 22.6406 94.8031C23.2542 94.7755 23.8378 94.9481 23.9344 95.0187C24.0474 95.1014 24.1676 95.1736 24.2937 95.2344C26.2428 96.7413 28.2994 98.1136 30.475 99.3312C30.4805 99.3342 30.8971 99.8093 31.1219 100.409C31.3467 101.009 31.4094 101.487 31.4094 101.487H31.4812C31.4548 102.23 31.3721 102.953 31.6969 103.787C32.083 104.78 32.9935 105.787 34.0687 106.231C35.1446 106.678 36.4719 106.589 37.4469 106.159C38.2429 105.809 38.7473 105.249 39.2437 104.722L39.3156 104.794C39.3156 104.794 39.6935 104.479 40.25 104.219C40.8065 103.958 41.4264 103.903 41.5438 103.931C41.6849 103.969 41.8293 103.993 41.975 104.003C42.042 104.021 42.1235 103.985 42.1906 104.003C44.2629 104.553 46.4069 105.012 48.5875 105.297C48.611 105.3 48.6358 105.294 48.6594 105.297C48.7064 105.323 48.7544 105.346 48.8031 105.369C48.9443 105.406 49.0887 105.43 49.2344 105.441C49.2344 105.441 49.8015 105.69 50.2406 106.159C50.6798 106.629 50.9594 107.094 50.9594 107.094C51.2177 107.78 51.4995 108.469 52.1094 109.106C52.8459 109.876 54.0371 110.4 55.2 110.4C56.3629 110.4 57.5541 109.876 58.2906 109.106C58.9183 108.45 59.2521 107.728 59.5125 107.022C59.5125 107.022 59.7448 106.685 60.1594 106.231C60.574 105.778 61.1198 105.459 61.2375 105.441C61.3135 105.431 61.3772 105.378 61.4531 105.369C61.5261 105.348 61.5981 105.324 61.6687 105.297C63.9086 105.005 66.0825 104.575 68.2094 104.003C68.3792 103.998 68.548 103.974 68.7125 103.931C68.7842 103.911 68.8566 103.88 68.9281 103.859C68.9281 103.859 69.5644 103.953 70.15 104.219C70.7356 104.485 71.1562 104.794 71.1562 104.794C71.6471 105.309 72.1726 105.816 72.9531 106.159C73.9277 106.588 75.2566 106.604 76.3312 106.159C77.4039 105.714 78.3169 104.78 78.7031 103.787C79.0296 102.949 79.0181 102.162 78.9906 101.416C78.9906 101.416 78.9901 101.348 78.9906 101.344C78.9987 101.288 79.0825 100.949 79.2781 100.409C79.4876 99.832 79.895 99.3931 79.9969 99.3312C80.0469 99.2855 80.0948 99.2375 80.1406 99.1875C80.2419 99.1232 80.3381 99.0511 80.4281 98.9719C82.2916 97.8912 84.0493 96.6053 85.7469 95.3063C85.8044 95.2623 85.9052 95.2786 85.9625 95.2344C86.1667 95.1659 86.3602 95.0692 86.5375 94.9469C86.5391 94.9456 87.1162 94.7097 87.7594 94.7312C88.4026 94.7529 88.9094 94.875 88.9094 94.875C89.5689 95.1706 90.2705 95.4312 91.1375 95.45C92.2017 95.4731 93.4053 95.0488 94.2281 94.2281C95.0531 93.4053 95.5456 92.1305 95.5219 91.0656C95.5014 90.1487 95.1942 89.4539 94.875 88.7656H94.9469C94.9469 88.7656 94.7589 88.373 94.7312 87.7594C94.7036 87.1458 94.8762 86.5622 94.9469 86.4656C95.1008 86.2708 95.2222 86.0524 95.3063 85.8187C95.3337 85.7481 95.3577 85.6761 95.3781 85.6031C96.6192 83.9659 97.8586 82.2954 98.9 80.5C98.9435 80.4249 99.0006 80.3597 99.0437 80.2844C99.0938 80.2386 99.1417 80.1906 99.1875 80.1406C99.2303 80.0651 99.2888 80.0008 99.3312 79.925C99.3312 79.925 99.8066 79.5043 100.409 79.2781C101.012 79.052 101.487 78.9906 101.487 78.9906V78.9187C102.214 78.9404 102.973 78.9479 103.787 78.6312C104.78 78.2451 105.715 77.3346 106.159 76.2594C106.606 75.1836 106.589 73.8562 106.159 72.8812C105.793 72.049 105.275 71.5233 104.722 71.0125C104.722 71.0125 104.479 70.6347 104.219 70.0781C103.958 69.5216 103.903 68.9736 103.931 68.8562C103.95 68.689 103.95 68.5203 103.931 68.3531C103.937 68.3308 103.925 68.3035 103.931 68.2812C103.933 68.2333 103.933 68.1854 103.931 68.1375C104.461 66.143 104.868 64.0505 105.153 61.9562C105.178 61.9328 105.202 61.9089 105.225 61.8844C105.344 61.6359 105.417 61.3681 105.441 61.0938C105.441 61.0938 105.69 60.5985 106.159 60.1594C106.629 59.7202 107.094 59.4406 107.094 59.4406V59.3687C107.751 59.1135 108.424 58.8747 109.034 58.2906C109.804 57.5541 110.4 56.291 110.4 55.1281C110.4 53.9666 109.804 52.7734 109.034 52.0375C108.397 51.4282 107.707 51.1449 107.022 50.8875C107.022 50.8875 106.613 50.6552 106.159 50.2406C105.706 49.826 105.459 49.2802 105.441 49.1625C105.407 49.0144 105.359 48.8699 105.297 48.7313C105.276 48.6582 105.252 48.5863 105.225 48.5156C104.942 46.396 104.466 44.3542 103.931 42.3344C103.935 42.2625 103.935 42.1906 103.931 42.1187C103.913 42.0512 103.95 41.9705 103.931 41.9031C103.921 41.7574 103.897 41.613 103.859 41.4719C103.859 41.4719 103.881 40.8356 104.147 40.25C104.413 39.6644 104.722 39.2437 104.722 39.2437C105.263 38.7389 105.801 38.1904 106.159 37.375C106.588 36.4005 106.604 35.1434 106.159 34.0687C106.16 34.0448 106.16 34.0208 106.159 33.9969C105.714 32.9242 104.708 32.0831 103.716 31.6969C102.881 31.3719 102.158 31.3828 101.416 31.4094V31.3375C101.416 31.3375 100.987 31.2595 100.409 31.05C99.832 30.8405 99.3212 30.505 99.2594 30.4031C99.1758 30.274 99.0795 30.1536 98.9719 30.0437C98.8883 29.9146 98.792 29.7943 98.6844 29.6844C97.6779 27.9738 96.5669 26.3636 95.3781 24.7969C95.3558 24.7481 95.3319 24.7002 95.3063 24.6531C95.2941 24.6373 95.3184 24.5971 95.3063 24.5812C95.2077 24.3173 95.0616 24.0736 94.875 23.8625C94.8737 23.8609 94.7097 23.2838 94.7312 22.6406C94.7529 21.9974 94.875 21.4906 94.875 21.4906H94.8031C95.0993 20.8303 95.4311 20.1308 95.45 19.2625C95.4731 18.1983 94.9769 16.9947 94.1562 16.1719C93.3334 15.3469 92.1305 14.8544 91.0656 14.8781C90.1718 14.898 89.4403 15.145 88.7656 15.4531C88.7656 15.4531 88.3011 15.5692 87.6875 15.5969C87.0739 15.6245 86.4903 15.4519 86.3937 15.3812C86.3467 15.3556 86.2987 15.3317 86.25 15.3094C86.1822 15.2565 86.1024 15.2182 86.0344 15.1656C85.9637 15.1381 85.8918 15.1141 85.8187 15.0938C84.1278 13.7977 82.3573 12.5818 80.5 11.5C80.3901 11.3924 80.2697 11.2961 80.1406 11.2125C80.0483 11.1579 79.9522 11.1099 79.8531 11.0687C79.8531 11.0687 79.5043 10.5934 79.2781 9.99062C79.052 9.38788 78.9187 8.84062 78.9187 8.84062C78.9394 8.1179 78.9461 7.4219 78.6312 6.6125C78.2451 5.62001 77.3346 4.61315 76.2594 4.16875C75.1836 3.72194 73.8562 3.81123 72.8812 4.24062C72.0852 4.59123 71.5808 5.15146 71.0844 5.67812L71.0125 5.60625C71.0125 5.60625 70.6347 5.92081 70.0781 6.18125C69.5216 6.44169 68.9017 6.4973 68.7844 6.46875C68.6432 6.43115 68.4988 6.40709 68.3531 6.39687C68.2858 6.37859 68.205 6.41491 68.1375 6.39687C66.0311 5.83396 63.8823 5.39123 61.6687 5.10313C61.4841 5.03061 61.2908 4.98229 61.0938 4.95937C61.0907 4.95906 60.5268 4.71049 60.0875 4.24062C59.6482 3.77076 59.3687 3.30625 59.3687 3.30625C59.1104 2.62011 58.8286 1.93087 58.2188 1.29375C57.4822 0.524237 56.291 0 55.1281 0ZM55.1281 4.8875C55.187 5.00519 55.202 4.96552 55.2719 5.175C55.3235 5.35069 55.3959 5.5196 55.4875 5.67812C55.4875 5.67812 55.9792 6.47344 56.7812 7.33125C57.2078 7.78748 58.1751 8.05685 58.8656 8.48125C58.9226 8.51624 58.9503 8.59153 59.0094 8.625C59.1865 8.87296 59.4112 9.08325 59.6703 9.24366C59.9294 9.40406 60.2178 9.51138 60.5187 9.55937C60.5656 9.56487 60.6157 9.55372 60.6625 9.55937C63.0492 9.84764 65.4337 10.3528 67.7062 10.9969C68.0253 11.0738 68.3572 11.0815 68.6795 11.0195C69.0019 10.9575 69.3072 10.8273 69.575 10.6375C69.5995 10.6338 69.6226 10.6415 69.6469 10.6375C70.4613 10.5037 71.4472 10.6175 72.0187 10.35C73.0596 9.86294 73.8156 9.27187 73.8156 9.27187C73.9447 9.1883 74.0651 9.09198 74.175 8.98438C74.2997 8.84051 74.298 8.85208 74.3906 8.76875C74.3966 8.89109 74.4035 8.87319 74.3906 9.05625C74.3722 9.22345 74.3722 9.39217 74.3906 9.55937C74.3906 9.55937 74.553 10.472 74.9656 11.5719C75.1787 12.1397 75.9521 12.7296 76.4031 13.3687C76.4142 13.3845 76.3919 13.4249 76.4031 13.4406C76.4254 13.4894 76.4494 13.5373 76.475 13.5844C76.5483 13.9033 76.6888 14.2029 76.8871 14.4632C77.0854 14.7235 77.337 14.9384 77.625 15.0938C77.6425 15.1036 77.6794 15.0839 77.6969 15.0938C79.8041 16.28 81.7696 17.6201 83.6625 19.1187C83.6865 19.1191 83.7104 19.1191 83.7344 19.1187C83.9878 19.311 84.2783 19.4485 84.5876 19.5227C84.8969 19.597 85.2182 19.6063 85.5312 19.55C86.37 19.761 87.2479 20.2264 87.9031 20.1969C89.0508 20.1452 89.9875 19.9094 89.9875 19.9094C90.1356 19.8758 90.2801 19.8277 90.4187 19.7656C90.5519 19.699 90.5325 19.7328 90.6344 19.6938C90.5955 19.7953 90.6291 19.7764 90.5625 19.9094C90.5005 20.048 90.4523 20.1925 90.4187 20.3406C90.4187 20.3406 90.1706 21.3231 90.1312 22.4969C90.1105 23.114 90.5964 23.9466 90.7781 24.725C90.7003 25.0601 90.6986 25.4084 90.7733 25.7443C90.8479 26.0802 90.9969 26.395 91.2094 26.6656C92.7282 28.5845 94.1121 30.6399 95.3063 32.775C95.4692 33.0711 95.6953 33.3276 95.9686 33.5264C96.2419 33.7251 96.5556 33.8612 96.8875 33.925C97.5617 34.4123 98.2311 35.1459 98.8281 35.3625C99.9085 35.7545 100.841 35.9375 100.841 35.9375C100.984 35.951 101.128 35.951 101.272 35.9375C101.503 35.9212 101.499 35.9272 101.631 35.9375C101.547 36.0328 101.568 36.0209 101.416 36.1531C101.283 36.2593 101.162 36.3798 101.056 36.5125C101.056 36.5125 100.464 37.312 99.9781 38.3812C99.7309 38.9255 99.8255 39.8522 99.6906 40.6094C99.6902 40.6333 99.6902 40.6573 99.6906 40.6812C99.4905 40.9578 99.3544 41.2754 99.2922 41.6111C99.2301 41.9467 99.2434 42.292 99.3312 42.6219C99.9947 44.9614 100.483 47.4193 100.769 49.8812C100.817 50.1822 100.924 50.4706 101.084 50.7297C101.245 50.9888 101.455 51.2135 101.703 51.3906C101.749 51.4406 101.797 51.4886 101.847 51.5344C102.284 52.2475 102.598 53.1881 103.069 53.6187C103.917 54.3944 104.722 54.8406 104.722 54.8406C104.858 54.9274 105.002 54.9997 105.153 55.0562C105.295 55.1036 105.269 55.0837 105.369 55.1281C105.264 55.1758 105.308 55.2204 105.153 55.2719C105.002 55.3284 104.858 55.4007 104.722 55.4875C104.722 55.4875 103.855 55.979 102.997 56.7812C102.549 57.2 102.267 58.1213 101.847 58.7937C101.547 58.9794 101.294 59.2315 101.107 59.5306C100.92 59.8297 100.804 60.1678 100.769 60.5187C100.485 62.9756 99.9933 65.3638 99.3312 67.7062C99.232 68.0467 99.2127 68.4055 99.2751 68.7546C99.3374 69.1037 99.4796 69.4337 99.6906 69.7188C99.8264 70.521 99.7857 71.4539 100.05 72.0187C100.537 73.0596 101.128 73.8156 101.128 73.8156C101.212 73.9447 101.308 74.0651 101.416 74.175C101.568 74.3074 101.546 74.2951 101.631 74.3906C101.508 74.3968 101.528 74.4037 101.344 74.3906C101.177 74.3722 101.008 74.3722 100.841 74.3906C100.841 74.3906 99.8561 74.553 98.7562 74.9656C98.1418 75.1962 97.5011 75.9553 96.8156 76.475C96.4967 76.5483 96.1971 76.6888 95.9368 76.8871C95.6765 77.0854 95.4616 77.337 95.3063 77.625C95.2966 77.6425 95.3159 77.6795 95.3063 77.6969C94.1215 79.8121 92.7141 81.7587 91.2094 83.6625C90.9969 83.9331 90.8479 84.248 90.7733 84.5838C90.6986 84.9197 90.7003 85.268 90.7781 85.6031C90.7777 85.6271 90.7777 85.651 90.7781 85.675C90.5975 86.4666 90.1751 87.3532 90.2031 87.975C90.2548 89.1226 90.4906 89.9875 90.4906 89.9875C90.5242 90.1356 90.5723 90.2801 90.6344 90.4187C90.701 90.5519 90.6672 90.5325 90.7062 90.6344C90.6047 90.5955 90.6237 90.6291 90.4906 90.5625C90.3289 90.4956 90.1601 90.4474 89.9875 90.4187C89.9875 90.4187 89.0769 90.1706 87.9031 90.1312C87.2774 90.1103 86.3934 90.5887 85.6031 90.7781C85.5804 90.7836 85.5542 90.7724 85.5312 90.7781C85.2071 90.7113 84.8723 90.7153 84.5498 90.7897C84.2273 90.8641 83.9246 91.0073 83.6625 91.2094C81.7561 92.7231 79.755 94.1101 77.625 95.3063C77.3289 95.4692 77.0724 95.6953 76.8736 95.9686C76.6749 96.2419 76.5388 96.5556 76.475 96.8875C75.9689 97.5746 75.1869 98.2184 74.9656 98.8281C74.5736 99.9085 74.4625 100.841 74.4625 100.841C74.4441 101.008 74.4441 101.177 74.4625 101.344C74.4722 101.481 74.4646 101.456 74.4625 101.559C74.3759 101.48 74.3585 101.544 74.2469 101.416C74.1407 101.283 74.0202 101.162 73.8875 101.056C73.8875 101.056 73.088 100.464 72.0187 99.9781C71.4053 99.6995 70.3846 99.8005 69.5031 99.6906C69.2389 99.523 68.9433 99.4111 68.6343 99.3616C68.3254 99.3122 68.0096 99.3263 67.7062 99.4031C65.3878 100.06 63.0273 100.555 60.5906 100.841C60.2585 100.878 59.9386 100.988 59.6531 101.161C59.3676 101.335 59.1234 101.569 58.9375 101.847C58.913 101.87 58.889 101.894 58.8656 101.919C58.1593 102.355 57.2091 102.601 56.7812 103.069C56.0056 103.917 55.4875 104.794 55.4875 104.794C55.4296 104.909 55.3815 105.03 55.3438 105.153C55.2923 105.308 55.2477 105.264 55.2 105.369C55.1556 105.269 55.1753 105.295 55.1281 105.153C55.0716 105.002 54.9993 104.858 54.9125 104.722C54.9125 104.722 54.421 103.927 53.6187 103.069C53.1569 102.575 52.1675 102.214 51.3906 101.775C51.361 101.758 51.3489 101.719 51.3187 101.703C50.971 101.287 50.4873 101.007 49.9531 100.912C49.9061 100.887 49.8581 100.863 49.8094 100.841C49.7859 100.838 49.761 100.843 49.7375 100.841C47.3398 100.558 44.9802 100.046 42.6937 99.4031C42.3904 99.3263 42.0746 99.3122 41.7657 99.3616C41.4567 99.4111 41.1611 99.523 40.8969 99.6906C40.872 99.6936 40.8497 99.6872 40.825 99.6906C40.7763 99.7129 40.7283 99.7369 40.6812 99.7625C39.8669 99.8963 38.8809 99.7825 38.3094 100.05C37.2686 100.537 36.5125 101.128 36.5125 101.128C36.3834 101.212 36.263 101.308 36.1531 101.416C36.0284 101.559 36.0301 101.548 35.9375 101.631C35.9315 101.509 35.9246 101.527 35.9375 101.344C35.9559 101.177 35.9559 101.008 35.9375 100.841C35.9375 100.841 35.8444 99.9226 35.4344 98.8281C35.0244 97.7337 34.3719 96.2209 32.7031 95.3063C30.6009 94.1296 28.5578 92.7734 26.6656 91.2812C26.6122 91.2422 26.5755 91.2458 26.5219 91.2094C26.0559 90.9016 25.4939 90.7739 24.9406 90.85C24.0651 90.6131 23.1063 90.1724 22.425 90.2031C21.2774 90.2548 20.3406 90.4906 20.3406 90.4906C20.1925 90.5242 20.048 90.5723 19.9094 90.6344C19.7761 90.701 19.7956 90.6672 19.6938 90.7062C19.7328 90.6044 19.699 90.624 19.7656 90.4906C19.8277 90.352 19.8758 90.2075 19.9094 90.0594C19.9094 90.0594 20.1575 89.0769 20.1969 87.9031C20.2196 87.2256 19.7181 86.3214 19.4781 85.4594C19.5344 85.1463 19.5251 84.825 19.4509 84.5157C19.3766 84.2064 19.2391 83.9159 19.0469 83.6625C17.5322 81.7455 16.1423 79.7563 14.95 77.625C14.9296 77.552 14.9056 77.48 14.8781 77.4094C13.8898 75.946 12.471 75.3389 11.4281 74.9656C10.3852 74.5924 9.4875 74.4625 9.4875 74.4625C9.34407 74.449 9.19968 74.449 9.05625 74.4625C8.87165 74.4756 8.89138 74.4685 8.76875 74.4625C8.85185 74.3701 8.84075 74.3714 8.98438 74.2469C9.09198 74.137 9.1883 74.0166 9.27187 73.8875C9.27187 73.8875 9.86961 73.143 10.35 72.0906C10.8304 71.0382 11.424 69.5177 10.925 67.7062C10.265 65.3654 9.77115 62.9756 9.4875 60.5187C9.46522 60.47 9.44125 60.4221 9.41562 60.375C9.07492 58.6289 8.01256 57.5301 7.1875 56.7812C6.36244 56.0324 5.60625 55.5594 5.60625 55.5594C5.47045 55.4726 5.32591 55.4003 5.175 55.3438C5.03351 55.2966 5.05898 55.3163 4.95937 55.2719C5.06392 55.2242 5.02053 55.1796 5.175 55.1281C5.32591 55.0716 5.47045 54.9993 5.60625 54.9125C5.60625 54.9125 6.43407 54.4538 7.25937 53.6906C8.08468 52.9275 9.11798 51.8131 9.41562 50.025C9.44125 49.9779 9.46522 49.93 9.4875 49.8812C9.77126 47.4147 10.2611 45.0417 10.925 42.6937C10.9265 42.6458 10.9265 42.5979 10.925 42.55C11.331 40.7757 10.7607 39.3381 10.2781 38.3094C9.79558 37.2806 9.27187 36.5844 9.27187 36.5844C9.16572 36.4517 9.0452 36.3311 8.9125 36.225C8.75972 36.0925 8.78165 36.1049 8.69687 36.0094C8.81969 36.0032 8.7998 35.9963 8.98438 36.0094C9.17529 36.0334 9.36846 36.0334 9.55937 36.0094C9.55937 36.0094 10.4541 35.8199 11.5 35.4344C12.5459 35.0489 13.912 34.5021 14.8781 32.9906C14.9037 32.9436 14.9277 32.8956 14.95 32.8469C16.1454 30.7025 17.5218 28.6697 19.0469 26.7375C19.0714 26.7141 19.0953 26.6901 19.1187 26.6656C19.1191 26.6417 19.1191 26.6177 19.1187 26.5938C19.1398 26.564 19.1704 26.5517 19.1906 26.5219C19.4816 26.0756 19.6086 25.5421 19.55 25.0125C19.8061 24.1112 20.2284 23.1245 20.1969 22.425C20.1452 21.2774 19.8375 20.4125 19.8375 20.4125C19.8039 20.2644 19.7558 20.1199 19.6938 19.9812C19.6141 19.8219 19.663 19.8072 19.6219 19.6938C19.7249 19.733 19.7008 19.6969 19.8375 19.7656C19.996 19.8573 20.1649 19.9297 20.3406 19.9812C20.3406 19.9812 21.2512 20.2294 22.425 20.2687C23.092 20.2911 24.0212 19.7791 24.8687 19.55C24.9378 19.5313 25.0149 19.5718 25.0844 19.55C25.6225 19.5877 26.1568 19.435 26.5938 19.1187C26.6177 19.1191 26.6417 19.1191 26.6656 19.1187C26.6917 19.0982 26.7114 19.0673 26.7375 19.0469C28.6108 17.5772 30.6315 16.2533 32.7031 15.0938C32.7276 15.0703 32.7516 15.0464 32.775 15.0219C34.3399 14.0605 34.9729 12.6486 35.3625 11.5719C35.7521 10.4951 35.8656 9.55937 35.8656 9.55937C35.884 9.39217 35.884 9.22345 35.8656 9.05625C35.856 8.91893 35.8636 8.94413 35.8656 8.84062C35.9522 8.92043 35.9696 8.85557 36.0812 8.98438C36.1874 9.11707 36.3079 9.2376 36.4406 9.34375C36.4406 9.34375 37.2401 9.93628 38.3094 10.4219C38.9131 10.696 39.9614 10.5951 40.825 10.7094C41.1037 10.875 41.4143 10.9798 41.7363 11.017C42.0584 11.0541 42.3847 11.0228 42.6937 10.925C42.7165 10.9186 42.7429 10.9314 42.7656 10.925C45.0543 10.2839 47.339 9.83813 49.7375 9.55937C50.0511 9.5206 50.3534 9.41762 50.6254 9.25686C50.8975 9.0961 51.1335 8.88101 51.3187 8.625C51.3793 8.59052 51.4042 8.51723 51.4625 8.48125C52.1688 8.04515 53.119 7.79919 53.5469 7.33125C54.3225 6.48293 54.8406 5.60625 54.8406 5.60625C54.9027 5.4676 54.9508 5.32314 54.9844 5.175C55.0542 4.96551 55.0693 5.00519 55.1281 4.8875ZM55.1281 13.8C44.528 13.8 33.9493 17.8726 25.875 25.9469C25.6236 26.1494 25.4177 26.4026 25.2707 26.69C25.1236 26.9774 25.0387 27.2925 25.0214 27.6148C25.0041 27.9372 25.0549 28.2595 25.1704 28.561C25.2859 28.8624 25.4635 29.1362 25.6918 29.3644C25.9201 29.5927 26.1938 29.7704 26.4953 29.8859C26.7967 30.0014 27.1191 30.0522 27.4414 30.0349C27.7638 30.0176 28.0789 29.9327 28.3663 29.7856C28.6536 29.6385 28.9068 29.4326 29.1094 29.1812C43.5001 14.7905 66.7561 14.7905 81.1469 29.1812C95.5376 43.572 95.5376 66.828 81.1469 81.2188C80.8955 81.4213 80.6896 81.6745 80.5425 81.9619C80.3955 82.2492 80.3105 82.5643 80.2933 82.8867C80.276 83.209 80.3267 83.5314 80.4422 83.8329C80.5577 84.1343 80.7354 84.4081 80.9637 84.6363C81.1919 84.8646 81.4657 85.0422 81.7671 85.1578C82.0686 85.2733 82.391 85.324 82.7133 85.3067C83.0357 85.2895 83.3508 85.2045 83.6381 85.0575C83.9255 84.9104 84.1787 84.7045 84.3812 84.4531C100.53 68.3045 100.53 42.0955 84.3812 25.9469C76.3069 17.8726 65.7283 13.8 55.1281 13.8ZM17.0344 42.7656C16.5878 42.8376 16.1723 43.0396 15.8399 43.3464C15.5075 43.6532 15.273 44.0512 15.1656 44.4906C11.4893 58.2928 15.0566 73.6348 25.875 84.4531C36.6934 95.2715 52.0353 98.8389 65.8375 95.1625C66.1301 95.0823 66.404 94.9452 66.6437 94.7591C66.8833 94.573 67.0839 94.3415 67.2341 94.0779C67.3843 93.8143 67.481 93.5236 67.5189 93.2226C67.5567 92.9216 67.5349 92.616 67.4547 92.3234C67.3745 92.0308 67.2374 91.7569 67.0513 91.5173C66.8652 91.2776 66.6337 91.077 66.3701 90.9269C66.1065 90.7767 65.8158 90.6799 65.5148 90.6421C65.2138 90.6042 64.9082 90.626 64.6156 90.7062C52.3404 93.9759 38.7472 90.8566 29.1094 81.2188C19.4715 71.5809 16.3522 57.9877 19.6219 45.7125C19.7382 45.3367 19.7561 44.9373 19.674 44.5525C19.5919 44.1677 19.4125 43.8105 19.1529 43.5148C18.8933 43.2192 18.5623 42.9951 18.1914 42.8639C17.8205 42.7328 17.4221 42.6989 17.0344 42.7656Z" fill="#573A32"/>
</svg>
